<svg width="88" height="88" viewBox="0 0 88 88" fill="none" xmlns="http://www.w3.org/2000/svg">
<path d="M22 40.3332C19.4618 40.3332 16.9806 39.5805 14.8701 38.1704C12.7597 36.7602 11.1148 34.7559 10.1435 32.4109C9.17219 30.066 8.91804 27.4856 9.41322 24.9962C9.9084 22.5068 11.1307 20.2201 12.9254 18.4253C14.7202 16.6305 17.0069 15.4083 19.4963 14.9131C21.9857 14.4179 24.5661 14.6721 26.9111 15.6434C29.2561 16.6147 31.2603 18.2596 32.6705 20.37C34.0806 22.4805 34.8333 24.9616 34.8333 27.4998C34.8292 30.9022 33.4758 34.164 31.07 36.5698C28.6641 38.9757 25.4023 40.3291 22 40.3332Z" fill="#161C9D"/>
<path d="M31.6809 35.8297C30.4928 37.2404 29.0108 38.3743 27.3385 39.1522C25.6663 39.9301 23.8443 40.3331 22 40.3331C20.1557 40.3331 18.3336 39.9301 16.6614 39.1522C14.9892 38.3743 13.5071 37.2404 12.319 35.8297C9.67897 37.4665 7.4993 39.7487 5.9855 42.4612C4.4717 45.1736 3.67366 48.2269 3.66663 51.3332C3.66663 52.3056 4.05293 53.2383 4.74057 53.9259C5.4282 54.6135 6.36083 54.9998 7.33329 54.9998H36.6666C37.6391 54.9998 38.5717 54.6135 39.2594 53.9259C39.947 53.2383 40.3333 52.3056 40.3333 51.3332C40.3263 48.2269 39.5282 45.1736 38.0144 42.4612C36.5006 39.7487 34.321 37.4665 31.6809 35.8297V35.8297ZM66 40.3332C63.4618 40.3332 60.9806 39.5805 58.8701 38.1704C56.7597 36.7602 55.1148 34.7559 54.1435 32.4109C53.1722 30.066 52.918 27.4856 53.4132 24.9962C53.9084 22.5068 55.1307 20.2201 56.9254 18.4253C58.7202 16.6305 61.0069 15.4083 63.4963 14.9131C65.9857 14.4179 68.5661 14.6721 70.9111 15.6434C73.2561 16.6147 75.2603 18.2596 76.6705 20.37C78.0806 22.4805 78.8333 24.9616 78.8333 27.4998C78.8292 30.9022 77.4758 34.164 75.07 36.5698C72.6641 38.9757 69.4023 40.3291 66 40.3332Z" fill="#064CFF"/>
<path d="M75.6809 35.8301C74.4928 37.2407 73.0108 38.3746 71.3385 39.1525C69.6663 39.9304 67.8443 40.3334 66 40.3334C64.1557 40.3334 62.3336 39.9304 60.6614 39.1525C58.9892 38.3746 57.5071 37.2407 56.319 35.8301C53.679 37.4669 51.4993 39.7491 49.9855 42.4615C48.4717 45.174 47.6737 48.2273 47.6666 51.3335C47.6666 52.306 48.0529 53.2386 48.7406 53.9262C49.4282 54.6139 50.3608 55.0002 51.3333 55.0002H80.6666C81.6391 55.0002 82.5717 54.6139 83.2594 53.9262C83.947 53.2386 84.3333 52.306 84.3333 51.3335C84.3263 48.2273 83.5282 45.174 82.0144 42.4615C80.5006 39.7491 78.321 37.4669 75.6809 35.8301V35.8301Z" fill="#064CFF"/>
<path d="M77.759 67.0745L70.4257 59.7412C69.736 59.0639 68.8068 58.6864 67.8402 58.6908C66.8736 58.6952 65.9479 59.0811 65.2644 59.7646C64.5809 60.4481 64.1949 61.3738 64.1906 62.3404C64.1862 63.307 64.5637 64.2362 65.241 64.9259L66.3153 66.0002H56.8333C55.8609 66.0002 54.9282 66.3865 54.2406 67.0741C53.553 67.7618 53.1667 68.6944 53.1667 69.6669C53.1667 70.6393 53.553 71.572 54.2406 72.2596C54.9282 72.9472 55.8609 73.3335 56.8333 73.3335H66.3151L65.2408 74.4079C64.8968 74.7475 64.6234 75.1519 64.4363 75.5976C64.2493 76.0433 64.1522 76.5217 64.1506 77.0051C64.1491 77.4885 64.2432 77.9674 64.4275 78.4143C64.6118 78.8612 64.8827 79.2672 65.2245 79.609C65.5663 79.9508 65.9724 80.2217 66.4193 80.4059C66.8662 80.5902 67.3451 80.6843 67.8285 80.6828C68.3119 80.6812 68.7902 80.5841 69.236 80.397C69.6817 80.2099 70.086 79.9365 70.4257 79.5925L77.759 72.2592C78.0995 71.9188 78.3696 71.5147 78.554 71.0699C78.7383 70.6251 78.8331 70.1483 78.8331 69.6669C78.8331 69.1854 78.7383 68.7086 78.554 68.2638C78.3696 67.819 78.0995 67.4149 77.759 67.0745V67.0745ZM31.1667 66.0002H21.6849L22.7592 64.9259C23.4396 64.2368 23.8198 63.3066 23.8167 62.3382C23.8136 61.3699 23.4276 60.4421 22.7428 59.7574C22.0581 59.0726 21.1303 58.6866 20.1619 58.6836C19.1936 58.6806 18.2633 59.0608 17.5743 59.7412L10.241 67.0745C9.90042 67.4149 9.63026 67.8191 9.44594 68.2639C9.26162 68.7087 9.16675 69.1855 9.16675 69.667C9.16675 70.1485 9.26162 70.6253 9.44594 71.0701C9.63026 71.5149 9.90042 71.9191 10.241 72.2594L17.5743 79.5928C18.2634 80.2732 19.1936 80.6533 20.162 80.6503C21.1303 80.6472 22.0581 80.2611 22.7428 79.5764C23.4276 78.8916 23.8136 77.9638 23.8166 76.9955C23.8196 76.0271 23.4394 75.0969 22.759 74.4079L21.6849 73.3335H31.1667C32.1391 73.3335 33.0717 72.9472 33.7594 72.2596C34.447 71.572 34.8333 70.6393 34.8333 69.6669C34.8333 68.6944 34.447 67.7618 33.7594 67.0741C33.0717 66.3865 32.1391 66.0002 31.1667 66.0002Z" fill="#161C9D"/>
</svg>
